<svg width="25" height="26" viewBox="0 0 25 26" fill="none" xmlns="http://www.w3.org/2000/svg">
<path d="M22.5154 10.6665C22.5154 10.335 22.3837 10.017 22.1492 9.7826C21.9148 9.54818 21.5969 9.41648 21.2654 9.41648C20.9338 9.41648 20.6159 9.54818 20.3815 9.7826C20.1471 10.017 20.0154 10.335 20.0154 10.6665H22.5154ZM5.01536 10.6665C5.01536 10.335 4.88366 10.017 4.64924 9.7826C4.41482 9.54818 4.09688 9.41648 3.76536 9.41648C3.43384 9.41648 3.1159 9.54818 2.88148 9.7826C2.64706 10.017 2.51536 10.335 2.51536 10.6665H5.01536ZM22.8816 14.0503C23.1174 14.278 23.4331 14.404 23.7609 14.4011C24.0886 14.3983 24.4021 14.2668 24.6339 14.0351C24.8656 13.8033 24.9971 13.4898 25 13.162C25.0028 12.8343 24.8768 12.5185 24.6491 12.2828L22.8816 14.0503ZM12.5154 1.9164L13.3991 1.03264C13.1647 0.798302 12.8468 0.666656 12.5154 0.666656C12.1839 0.666656 11.866 0.798302 11.6316 1.03264L12.5154 1.9164ZM0.38161 12.2828C0.262222 12.3981 0.166995 12.536 0.101484 12.6885C0.0359723 12.841 0.00148947 13.005 4.71959e-05 13.171C-0.00139507 13.337 0.0302321 13.5016 0.0930832 13.6552C0.155934 13.8088 0.248751 13.9484 0.366117 14.0658C0.483482 14.1831 0.623047 14.276 0.776668 14.3388C0.930288 14.4017 1.09489 14.4333 1.26086 14.4319C1.42684 14.4304 1.59086 14.3959 1.74337 14.3304C1.89587 14.2649 2.0338 14.1697 2.14911 14.0503L0.38161 12.2828ZM6.26536 25.6667H18.7654V23.1666H6.26536V25.6667ZM22.5154 21.9166V10.6665H20.0154V21.9166H22.5154ZM5.01536 21.9166V10.6665H2.51536V21.9166H5.01536ZM24.6491 12.2828L13.3991 1.03264L11.6316 2.80016L22.8816 14.0503L24.6491 12.2828ZM11.6316 1.03264L0.38161 12.2828L2.14911 14.0503L13.3991 2.80016L11.6316 1.03264ZM18.7654 25.6667C19.7599 25.6667 20.7138 25.2716 21.417 24.5683C22.1203 23.865 22.5154 22.9112 22.5154 21.9166H20.0154C20.0154 22.2481 19.8837 22.5661 19.6492 22.8005C19.4148 23.0349 19.0969 23.1666 18.7654 23.1666V25.6667ZM6.26536 23.1666C5.93384 23.1666 5.6159 23.0349 5.38148 22.8005C5.14706 22.5661 5.01536 22.2481 5.01536 21.9166H2.51536C2.51536 22.9112 2.91045 23.865 3.61371 24.5683C4.31697 25.2716 5.2708 25.6667 6.26536 25.6667V23.1666Z" fill="#4CAF50"/>
</svg>
